PathFileType	4	(X/Y/Z)	C:\Users\Basilio\Documents\Thesis Gigler\squatting_fais\c3dfiles\038\SLS_front_pre4\markers_experimental.trc
DataRate	CameraRate	NumFrames	NumMarkers	Units	OrigDataRate	OrigDataStartFrame	OrigNumFrames
200.000000	200.000000	4	61	mm	200.000000	528	1408
Frame#	Time	FHD			LBHD			RBHD			C7			T10			CLAV			LSHO			LUUPA			LMUPA			LDUPA			LLEP			LMEP			LRAD			LUL			LRFIN			RSHO			RUPA1			RMUPA			RDUPA			RLEP			RMEP			RRAD			RUL			RUFIN			LASI			RASI			USACR			LSACR			RSACR			LTHI1			LTHI2			LTHI3			LTHI4			LLFC			LMFC			LTIB1			LTIB2			LTIB3			LTIB4			LLMAL			LMMAL			LHEE			LMT1			LMT2			LMT5			RTHI			RTHI2			RTHI3			RTHI4			RLFC			RMFC			RTIB1			RTIB2			RTIB3			RTIB4			RLMAL			RMMAL			RHEE			RMT1			RMT2			RMT5			
		X1	Y1	Z1	X2	Y2	Z2	X3	Y3	Z3	X4	Y4	Z4	X5	Y5	Z5	X6	Y6	Z6	X7	Y7	Z7	X8	Y8	Z8	X9	Y9	Z9	X10	Y10	Z10	X11	Y11	Z11	X12	Y12	Z12	X13	Y13	Z13	X14	Y14	Z14	X15	Y15	Z15	X16	Y16	Z16	X17	Y17	Z17	X18	Y18	Z18	X19	Y19	Z19	X20	Y20	Z20	X21	Y21	Z21	X22	Y22	Z22	X23	Y23	Z23	X24	Y24	Z24	X25	Y25	Z25	X26	Y26	Z26	X27	Y27	Z27	X28	Y28	Z28	X29	Y29	Z29	X30	Y30	Z30	X31	Y31	Z31	X32	Y32	Z32	X33	Y33	Z33	X34	Y34	Z34	X35	Y35	Z35	X36	Y36	Z36	X37	Y37	Z37	X38	Y38	Z38	X39	Y39	Z39	X40	Y40	Z40	X41	Y41	Z41	X42	Y42	Z42	X43	Y43	Z43	X44	Y44	Z44	X45	Y45	Z45	X46	Y46	Z46	X47	Y47	Z47	X48	Y48	Z48	X49	Y49	Z49	X50	Y50	Z50	X51	Y51	Z51	X52	Y52	Z52	X53	Y53	Z53	X54	Y54	Z54	X55	Y55	Z55	X56	Y56	Z56	X57	Y57	Z57	X58	Y58	Z58	X59	Y59	Z59	X60	Y60	Z60	X61	Y61	Z61	

529	2.64	-257.9678649902344	1686.711059570313	-1106.8154296875	-413.4041137695314	1640.299560546875	-1171.269165039063	-409.3570556640626	1627.912475585938	-1026.532470703125	-466.1542358398439	1454.860717773438	-1098.914916992188	-436.906951904297	1173.4736328125	-1076.680541992188	-321.7877807617188	1444.730102539063	-1104.658081054688	-381.6255493164063	1470.822631835938	-1250.811279296875	-211.8804626464844	1404.926147460938	-1372.729614257813	-184.8163604736328	1439.999145507813	-1346.689697265625	-142.7530822753907	1412.123413085938	-1379.1162109375	-81.37041473388673	1415.04638671875	-1378.479736328125	-72.66873168945314	1340.459716796875	-1353.64404296875	200.8847656250001	1402.857299804688	-1267.28369140625	212.8097229003907	1422.202758789063	-1336.03076171875	272.9336853027344	1433.384033203125	-1243.34765625	-374.4548339843751	1473.255859375	-960.237487792969	-224.9065399169922	1439.655151367188	-829.262145996094	-186.4095611572266	1451.619018554688	-857.8615722656252	-158.0707397460938	1435.897827148438	-806.9886474609377	-85.4312210083008	1433.277465820313	-791.1601562500002	-78.47602844238283	1354.737915039063	-806.1177368164065	190.8744812011719	1425.9833984375	-875.4268798828127	201.0801849365235	1445.8515625	-807.8793945312502	271.4399108886719	1460.151977539063	-882.7312622070315	-235.8106384277344	998.4241943359377	-1161.442260742188	-277.2956848144532	1032.049926757813	-915.4650878906252	-426.9920959472657	1028.937622070313	-1062.080810546875	-431.0384521484376	995.9530029296877	-1087.671997070313	-438.4755249023439	999.966735839844	-1031.283569335938	-192.3600311279297	680.7014770507814	-1203.916381835938	-143.2648620605469	611.5194702148439	-1194.684692382813	-99.83832550048831	627.9096069335939	-1173.93115234375	-158.9166564941407	556.5204467773439	-1176.8232421875	-148.9139556884766	498.4617919921876	-1164.22998046875	-140.03759765625	500.3370361328126	-1047.296142578125	-171.1130981445313	318.6017761230469	-1070.5810546875	-226.1899719238282	286.5667724609376	-1132.896118164063	-193.5308380126954	272.6620483398438	-1101.269775390625	-235.8236999511719	209.5872192382813	-1063.820434570313	-361.4357910156251	114.1088485717774	-1074.6806640625	-320.7827148437501	127.9079360961914	-1002.733459472656	-416.5173339843751	94.46043395996095	-1016.449584960938	-215.8933563232422	45.40357971191407	-1016.836547851563	-209.614242553711	45.02682113647462	-1067.783813476563	-256.5927429199219	33.43960571289063	-1111.938354492188	-197.2429962158204	787.7131958007815	-843.7349243164065	-134.4874420166016	763.7456054687501	-844.1342773437502	-108.9598693847657	783.6223754882815	-853.2822265625002	-113.6418914794922	680.7718505859376	-855.9209594726565	-22.86246490478516	578.4065551757814	-861.7532348632815	-28.5029525756836	568.7791748046876	-981.5118408203127	113.1491851806641	456.667694091797	-882.815124511719	96.66349792480472	349.2664184570313	-838.886169433594	132.580810546875	377.4994812011719	-851.5378417968752	170.0887451171875	341.2041015625001	-879.0291137695315	189.2512512207032	205.4490051269532	-839.9552001953127	209.0422363281251	225.6770782470704	-921.2424316406252	171.7328643798828	127.7512435913086	-899.8992919921877	347.8830871582032	256.1865844726563	-896.5210571289065	342.5059814453126	262.4867553710938	-849.7589111328127	321.5751647949219	221.3987121582032	-803.940124511719	
530	2.645	-257.6278991699219	1686.10498046875	-1107.071899414063	-413.1975708007814	1639.590698242188	-1171.33203125	-409.1695861816407	1627.10595703125	-1026.582275390625	-466.036834716797	1454.287841796875	-1099.012329101563	-437.1419677734376	1172.89501953125	-1076.631469726563	-321.7463989257813	1443.964599609375	-1104.77783203125	-381.4442443847657	1469.963500976563	-1250.7998046875	-211.7557983398438	1404.306884765625	-1372.892944335938	-184.9227294921875	1439.24755859375	-1346.68212890625	-142.7459869384766	1411.485473632813	-1379.126953125	-81.37368774414064	1414.228271484375	-1378.619384765625	-72.66651916503908	1339.73193359375	-1353.661987304688	201.0077056884766	1401.730102539063	-1267.349975585938	212.8817596435547	1421.298950195313	-1336.134033203125	273.0520324707032	1432.351440429688	-1243.503173828125	-374.4219665527344	1472.5146484375	-960.296325683594	-224.6110534667969	1438.935302734375	-829.4094238281252	-186.566390991211	1450.705688476563	-858.2196044921877	-158.2796478271485	1435.213134765625	-807.0762939453127	-85.4047317504883	1432.75146484375	-791.4343261718752	-78.54541778564455	1353.837646484375	-806.3356933593752	191.2267150878907	1425.1474609375	-875.7294921875002	201.3352355957032	1445.055053710938	-808.2888793945315	271.7214965820313	1459.0576171875	-883.1162109375002	-236.0273590087891	998.2197875976565	-1161.448852539063	-277.7385864257813	1031.442626953125	-915.4971923828127	-427.182342529297	1028.18505859375	-1062.075561523438	-431.4516601562501	995.324157714844	-1087.657470703125	-438.9148254394532	999.4302978515627	-1031.347900390625	-192.2294921875001	680.1776123046876	-1204.15087890625	-142.9293823242188	611.1154785156251	-1195.02001953125	-99.468376159668	627.5105590820314	-1174.24658203125	-158.7725067138672	556.3231811523439	-1177.224487304688	-148.2433319091797	498.0585327148439	-1164.6640625	-139.2755279541016	500.0125427246095	-1047.6572265625	-170.7546691894532	318.2908325195313	-1070.908203125	-225.9738311767579	286.2938842773438	-1133.159545898438	-193.2344207763672	272.3198242187501	-1101.392700195313	-235.6335754394532	209.4399414062501	-1064.058471679688	-360.5579833984376	114.1139831542969	-1074.4599609375	-320.3409729003907	128.2349395751953	-1002.845336914063	-416.6085510253907	94.48301696777345	-1016.4638671875	-215.8856201171876	45.44536972045899	-1016.876037597656	-209.6076660156251	44.97316360473634	-1067.853515625	-256.6651000976563	33.35506820678712	-1111.933349609375	-197.2528533935547	787.300720214844	-843.9441528320315	-134.5109405517578	763.2036132812501	-844.0610351562502	-108.9602508544922	783.2353515625002	-853.181579589844	-113.5820693969727	680.4502563476564	-855.8909912109377	-22.72870635986328	577.9419555664064	-861.7087402343752	-28.27262496948243	568.3630981445314	-981.4129638671877	113.5501174926758	456.462371826172	-882.7984619140627	96.96726226806643	349.0705871582032	-838.8492431640627	132.9043579101563	377.4307250976563	-851.4322509765627	170.5126190185547	340.9525146484376	-878.941833496094	189.8444976806641	205.2646636962891	-839.7578735351565	209.3058319091797	225.9663238525391	-921.2292480468752	172.2743225097657	127.5640258789063	-899.885437011719	348.3536682128907	256.3459472656251	-896.381530761719	343.0625000000001	262.7189331054688	-849.577087402344	322.1555175781251	221.4398651123047	-803.8084716796877	
531	2.65	-257.2754821777344	1685.204345703125	-1107.283203125	-413.1014404296876	1638.807495117188	-1171.421142578125	-409.0426025390626	1626.448486328125	-1026.724731445313	-466.0169982910157	1453.712280273438	-1099.061157226563	-437.2968139648439	1172.257446289063	-1076.644409179688	-321.6294250488282	1443.16748046875	-1104.939331054688	-381.3122863769532	1469.330810546875	-1250.922241210938	-211.7319488525391	1403.597045898438	-1373.012573242188	-184.9311218261719	1438.447143554688	-1346.81982421875	-142.886459350586	1410.7763671875	-1379.219604492188	-80.93633270263673	1413.020751953125	-1378.534912109375	-72.68968963623048	1338.905639648438	-1353.903442382813	200.9223022460938	1400.985595703125	-1267.547485351563	212.853988647461	1420.384399414063	-1336.361572265625	272.9758605957032	1431.418090820313	-1243.691650390625	-374.2834472656251	1471.912353515625	-960.4683227539065	-224.3272857666016	1438.309936523438	-829.748474121094	-186.317367553711	1449.992065429688	-858.5137329101565	-158.1737670898438	1434.426147460938	-807.3476562500002	-85.24220275878908	1432.218383789063	-791.7460937500002	-78.30153656005861	1353.549438476563	-806.5120239257815	191.3157501220703	1424.386474609375	-876.057312011719	201.4537353515626	1444.517822265625	-808.5596313476565	271.8923034667969	1458.282470703125	-883.108093261719	-236.3885192871094	997.496520996094	-1161.531372070313	-278.0473327636719	1030.619262695313	-915.4580688476565	-427.6219482421876	1027.444946289063	-1061.968872070313	-431.6275939941407	994.541687011719	-1087.764282226563	-439.1473388671876	998.7386474609377	-1031.28076171875	-192.2342224121094	679.6366577148439	-1204.344970703125	-142.7256011962891	610.5996704101564	-1195.33203125	-99.23474884033206	627.1499023437501	-1174.723754882813	-158.2632141113282	555.6490478515626	-1177.576782226563	-147.7326812744141	497.6912536621095	-1164.95458984375	-138.6307830810547	499.6744689941407	-1047.85302734375	-170.2244720458985	318.0373229980469	-1071.401000976563	-225.813949584961	286.0628967285157	-1133.468383789063	-193.1169738769532	272.1556701660157	-1101.941162109375	-235.4498443603516	209.2251434326172	-1064.408935546875	-360.9466247558594	114.0705718994141	-1074.794555664063	-320.2046508789063	128.3078308105469	-1003.036865234375	-416.5573120117189	94.47934722900392	-1016.554443359375	-215.8940582275391	45.54821395874024	-1016.885986328125	-209.6258087158204	44.95103454589844	-1067.893310546875	-257.1194458007813	33.67980957031251	-1112.047119140625	-197.4097595214844	786.704772949219	-843.8979492187502	-134.5060729980469	762.8402709960939	-844.0263671875002	-109.0832748413086	782.7370605468752	-853.223327636719	-113.431381225586	679.9724121093751	-855.8516845703127	-22.67521095275879	577.5914306640626	-861.6464843750002	-28.03771209716798	567.9178466796876	-981.3913574218752	113.9336090087891	456.3192443847657	-882.784362792969	97.16666412353518	348.9925537109376	-838.8044433593752	133.3689575195313	377.3330078125001	-851.3306274414065	170.8623199462891	340.5950927734376	-878.8977661132815	190.3641662597657	205.2491607666016	-839.6475830078127	209.4214782714844	226.1980438232422	-921.3484497070315	172.8314208984375	127.4800643920899	-899.8372802734377	348.8533630371094	256.5704650878907	-896.3006591796877	343.2896728515626	262.9407348632813	-849.4583740234377	322.7040710449219	221.2555847167969	-803.4124755859377	
532	2.655	-257.1163940429688	1684.453247070313	-1107.377563476563	-412.8943176269532	1638.321044921875	-1171.503051757813	-408.8678588867189	1625.994140625	-1026.769165039063	-465.9226684570314	1453.003662109375	-1099.129760742188	-437.7759399414064	1171.683837890625	-1076.7333984375	-321.5035095214844	1442.399169921875	-1105.12939453125	-381.2091979980469	1468.624877929688	-1251.03466796875	-211.7205657958985	1403.056884765625	-1373.092407226563	-184.8092651367188	1437.787231445313	-1346.92236328125	-142.950439453125	1410.031494140625	-1379.324829101563	-81.02322387695314	1412.3876953125	-1378.67431640625	-72.73593139648439	1338.103881835938	-1354.121215820313	200.9641571044922	1400.16650390625	-1267.8603515625	212.7902374267579	1419.586059570313	-1336.479858398438	272.9485168457032	1430.55908203125	-1243.857543945313	-374.1699523925782	1471.204956054688	-960.5838012695315	-224.0176849365235	1437.758911132813	-829.958190917969	-186.1580963134766	1449.486083984375	-858.7708129882815	-157.9305267333985	1433.56005859375	-807.5669555664065	-84.98629760742189	1431.429809570313	-792.0105590820315	-78.08044433593751	1352.620849609375	-806.8448486328127	191.4679107666016	1423.515258789063	-876.3784790039065	201.6613159179688	1443.417114257813	-808.8315429687502	272.1298522949219	1457.619140625	-883.4558715820315	-236.8361053466797	996.5340576171877	-1161.450073242188	-278.4047546386719	1029.96630859375	-915.4920043945315	-428.0820312500001	1026.750244140625	-1062.025146484375	-432.1649475097657	993.7855224609377	-1087.745971679688	-439.4873352050782	997.8282470703127	-1031.22119140625	-192.1746215820313	679.0722045898439	-1204.663818359375	-142.5218505859375	610.0247192382814	-1195.668823242188	-99.02178192138675	626.8628540039064	-1175.214477539063	-157.8933410644532	555.1254272460939	-1177.925537109375	-147.1641387939453	497.313934326172	-1165.358276367188	-137.7601013183594	499.2527160644532	-1048.341064453125	-169.6954345703125	317.5324096679688	-1071.855712890625	-225.6906890869141	285.8591003417969	-1133.767578125	-192.9817810058594	271.8207092285157	-1102.22607421875	-235.2797241210938	208.9812622070313	-1064.829467773438	-360.9975585937501	113.9871139526367	-1074.949951171875	-320.0929565429688	128.280502319336	-1003.259460449219	-416.5752563476564	94.5052947998047	-1016.557373046875	-215.8650054931641	45.57678985595704	-1016.946960449219	-209.5984039306641	44.74974060058594	-1067.93017578125	-256.6987609863282	33.2772331237793	-1112.116943359375	-197.4482116699219	786.3123168945315	-843.7649536132815	-134.6519470214844	762.1987304687501	-843.759948730469	-109.2015609741211	782.4134521484377	-853.064636230469	-113.4106369018555	679.5028076171876	-855.8201904296877	-22.61020088195801	577.3282470703126	-861.5318603515627	-27.7871379852295	567.5377807617189	-981.329284667969	114.1839065551758	456.1752014160157	-882.591003417969	97.4565353393555	348.8520812988282	-838.7227172851565	133.7963104248047	377.1648254394532	-851.3225097656252	171.2994842529297	340.5151367187501	-878.740173339844	190.9502563476563	205.1366729736329	-839.679138183594	210.0037384033204	225.993637084961	-921.2829589843752	173.6547088623047	127.0076141357422	-899.8760375976565	349.3607177734376	256.8314514160157	-896.1834106445315	343.4906921386719	263.0709228515626	-849.3560180664065	323.0967102050782	221.7653503417969	-803.327819824219	
